#!OML:ASF H:\Terrain\Patient Classification 1\Walking\steve\steve.ASF
:FULLY-SPECIFIED
:DEGREES
152
root 7.50815 14.4382 1.51694 14.9848 -14.0838 -7.87928
lowerback -2.40169 11.5888 3.41104
upperback -3.3759 15.4118 -4.13563
thorax -0.178469 7.67673 -5.49854
lowerneck -10.0549 -4.95636 -4.73252
upperneck 8.94883 -6.77777 7.13758
head 4.7368 -3.07115 2.48337
rclavicle 9.42239e-014 1.82882e-014
rhumerus 26.6572 4.65916 -61.4117
rradius 47.3133
rwrist -29.2525
rhand -16.8853 -38.1192
rfingers 7.12502
rthumb 9.34604 -67.892
lclavicle 9.42239e-014 1.82882e-014
lhumerus -78.4005 1.91113 -2.7595
lradius 14.8732
lwrist -11.5988
lhand -13.6822 -3.41587
lfingers 7.12502
lthumb 12.4356 26.1942
rfemur 26.7092 7.68246 22.3366
rtibia 8.19031
rfoot 23.262 2.86557
rtoes 1.00906
lfemur -64.5029 9.87175 -10.7446
ltibia 42.2416
lfoot -7.47625 9.40891
ltoes -0.175554
153
root 7.51988 14.3842 1.79828 15.7198 -14.0082 -7.5328
lowerback -2.15282 11.5503 2.65539
upperback -3.97528 15.36 -4.58867
thorax -1.0111 7.63208 -5.72492
lowerneck -9.80077 -5.17238 -5.34282
upperneck 8.79859 -7.04988 7.71521
head 4.70815 -3.19941 2.74462
rclavicle 8.60738e-014 -1.59028e-014
rhumerus 25.3787 5.30491 -61.1179
rradius 48.2949
rwrist -29.9205
rhand -17.5031 -37.8216
rfingers 7.12502
rthumb 8.74983 -67.6202
lclavicle 8.60738e-014 -1.59028e-014
lhumerus -77.7356 1.90622 -2.06824
lradius 14.935
lwrist -11.0269
lhand -12.8712 -2.59157
lfingers 7.12502
lthumb 13.2173 26.9694
rfemur 26.2254 8.06014 21.9876
rtibia 8.53126
rfoot 25.1969 1.16057
rtoes 0.0587123
lfemur -66.4882 10.9227 -12.5389
ltibia 45.002
lfoot -5.4321 8.44387
ltoes 2.53962
154
root 7.52031 14.323 2.07143 16.2807 -13.5485 -7.53924
lowerback -1.82887 11.4737 2.38234
upperback -4.23575 15.2547 -4.94665
thorax -1.44304 7.56965 -6.06257
lowerneck -10.2423 -5.4687 -5.63937
upperneck 8.78417 -7.42567 8.02387
head 4.82609 -3.3654 2.84653
rclavicle -4.57205e-015 -3.18055e-014
rhumerus 24.2516 5.51328 -60.6734
rradius 49.4043
rwrist -30.3664
rhand -18.5021 -37.4508
rfingers 7.12502
rthumb 7.7857 -67.2874
lclavicle -4.57205e-015 -3.18055e-014
lhumerus -76.7227 3.05958 -2.24744
lradius 14.9176
lwrist -11.7841
lhand -11.949 -2.41362
lfingers 7.12502
lthumb 14.1062 27.0876
rfemur 25.2105 8.10928 22.1781
rtibia 10.4512
rfoot 26.4599 -0.202009
rtoes 0.932306
lfemur -68.5611 11.7802 -13.9733
ltibia 48.2537
lfoot -3.65849 7.07094
ltoes -6.85444
155
root 7.52734 14.2663 2.34299 16.6792 -13.016 -7.50653
lowerback -1.50566 11.4082 2.2541
upperback -4.26121 15.1656 -5.26773
thorax -1.6023 7.52323 -6.39902
lowerneck -10.7739 -5.6814 -5.74693
upperneck 8.57762 -7.69769 8.32893
head 4.88748 -3.47424 2.92372
rclavicle -2.84262e-014 0
rhumerus 22.9871 5.64101 -59.7977
rradius 50.8808
rwrist -30.7957
rhand -17.4159 -37.1374
rfingers 7.12502
rthumb 8.83403 -66.9325
lclavicle -2.84262e-014 0
lhumerus -75.8196 4.36441 -1.6753
lradius 15.1049
lwrist -12.0742
lhand -11.1478 -2.47754
lfingers 7.12502
lthumb 14.8781 26.9682
rfemur 24.2395 8.29028 22.4085
rtibia 12.7539
rfoot 27.258 -2.32586
rtoes 3.64774
lfemur -70.4607 12.2167 -15.0608
ltibia 51.6209
lfoot -3.18069 5.08957
ltoes -13.5649
156
root 7.53599 14.2304 2.5818 17.1588 -12.7033 -7.58955
lowerback -0.815126 11.3709 2.163
upperback -4.40016 15.1125 -5.48811
thorax -2.096 7.48209 -6.75235
lowerneck -10.6786 -5.78053 -6.03227
upperneck 7.83777 -7.77824 8.63853
head 4.67446 -3.51937 3.06591
rclavicle 5.26779e-014 4.45278e-014
rhumerus 21.7395 6.04491 -59.0454
rradius 52.3283
rwrist -31.2055
rhand -16.3809 -36.6377
rfingers 7.12502
rthumb 9.83272 -66.3881
lclavicle 5.26779e-014 4.45278e-014
lhumerus -74.9803 5.05193 0.55717
lradius 15.4629
lwrist -10.6313
lhand -10.8339 -2.77953
lfingers 7.12502
lthumb 15.1804 26.6436
rfemur 23.4661 9.01006 22.8712
rtibia 14.3628
rfoot 27.8963 -6.77099
rtoes 10.1308
lfemur -72.1074 12.5744 -15.7435
ltibia 54.5448
lfoot -3.15187 3.65278
ltoes -12.1443
157
root 7.54877 14.2468 2.86305 17.5701 -12.5826 -7.11188
lowerback -0.752957 11.335 1.64631
upperback -4.30566 15.0508 -5.84618
thorax -2.07165 7.46382 -6.86124
lowerneck -10.9469 -5.85227 -6.01513
upperneck 7.23783 -7.79875 8.40131
head 4.52533 -3.54547 2.98609
rclavicle -1.10723e-013 -1.74931e-014
rhumerus 20.9713 6.36236 -58.7946
rradius 53.257
rwrist -31.1707
rhand -17.0947 -37.0091
rfingers 7.12502
rthumb 9.14398 -66.7909
lclavicle -1.10723e-013 -1.74931e-014
lhumerus -73.8677 6.09491 2.60815
lradius 15.7693
lwrist -9.10609
lhand -10.5639 -3.87681
lfingers 7.12502
lthumb 15.4406 25.5265
rfemur 22.2579 9.20111 22.4701
rtibia 15.8763
rfoot 29.8555 -5.32086
rtoes -1.09762
lfemur -73.064 12.8427 -17.1252
ltibia 56.7767
lfoot -3.56891 2.75395
ltoes -8.76353
158
root 7.5597 14.2477 3.13019 18.147 -12.3236 -7.06723
lowerback -0.789125 11.2947 1.51457
upperback -4.24521 14.9932 -6.09812
thorax -1.96116 7.44233 -7.0338
lowerneck -11.54 -5.90865 -5.95682
upperneck 7.05566 -7.83273 8.2952
head 4.56268 -3.55458 2.92809
rclavicle -2.06736e-014 0
rhumerus 20.4416 6.62188 -58.7353
rradius 53.7253
rwrist -30.8818
rhand -17.8767 -37.9411
rfingers 7.12502
rthumb 8.38935 -67.7545
lclavicle -2.06736e-014 0
lhumerus -72.6304 7.8207 3.53593
lradius 15.8851
lwrist -8.81168
lhand -9.88707 -4.30075
lfingers 7.12502
lthumb 16.0924 25.0511
rfemur 21.6113 9.94378 22.7306
rtibia 17.177
rfoot 30.0065 -7.44381
rtoes 3.42898
lfemur -73.9946 13.0067 -17.8961
ltibia 58.5957
lfoot -4.05784 1.94384
ltoes -6.35109
159
root 7.56949 14.2652 3.38377 18.6403 -11.7314 -7.33722
lowerback -0.481907 11.1216 1.67042
upperback -4.37217 14.7591 -6.1647
thorax -2.23716 7.31171 -7.27524
lowerneck -11.4824 -5.86562 -5.98517
upperneck 6.78521 -7.76709 8.40872
head 4.47169 -3.52239 2.97715
rclavicle -8.5875e-014 -1.43125e-014
rhumerus 19.551 7.42073 -58.5943
rradius 54.064
rwrist -30.8941
rhand -18.6864 -38.1952
rfingers 7.12502
rthumb 7.60782 -68.0384
lclavicle -8.5875e-014 -1.43125e-014
lhumerus -71.4781 9.49261 4.36223
lradius 15.6614
lwrist -9.0131
lhand -9.71361 -3.20253
lfingers 7.12502
lthumb 16.2594 26.1357
rfemur 20.635 10.2723 23.426
rtibia 18.676
rfoot 30.7925 -5.99206
rtoes -0.507805
lfemur -74.4642 12.9681 -18.2015
ltibia 59.9773
lfoot -4.60725 0.783506
ltoes -3.8492
